<svg xmlns="http://www.w3.org/2000/svg" xmlns:xlink="http://www.w3.org/1999/xlink" viewBox="0 0 383.064 341.724">
  <g transform="matrix(1, 0, 0, 1, 0, 0)">
    <path id="Path_33-2" data-name="Path 33" d="M387.873,870.378c-26.357,0-52.73.506-79.054-.414-5.484-.191-13.08-4.3-15.82-8.9Q252.272,792.535,213.254,723c-2.255-4-2.227-11.485.033-15.5q39.5-70.077,80.459-139.315c2.728-4.591,10.526-8.653,16.026-8.724,51.728-.659,103.472-.18,155.211-.589,9.138-.076,14.033,3.344,18.39,11.006q38.653,68.052,78.216,135.585c4.324,7.373,3.883,13-.24,20.057q-39.054,66.948-77.4,134.305c-4.373,7.695-9.4,10.968-18.466,10.761C439.623,870,413.745,870.378,387.873,870.378Z" transform="translate(-196.58 -543.88)" fill="#fff"/>
  </g>
</svg>
