<svg xmlns="http://www.w3.org/2000/svg" width="55.333" height="55.194" viewBox="0 0 55.333 55.194">
  <g id="Group_21" data-name="Group 21" transform="translate(-150.333 -75.5)">
    <circle id="Ellipse_3" data-name="Ellipse 3" cx="4.65" cy="4.65" r="4.65" transform="translate(160.386 85.535)" fill="#fad719"/>
    <circle id="Ellipse_4" data-name="Ellipse 4" cx="4.65" cy="4.65" r="4.65" transform="translate(186.33 85.535)" fill="#27c241"/>
    <circle id="Ellipse_5" data-name="Ellipse 5" cx="4.65" cy="4.65" r="4.65" transform="translate(160.386 110.419)" fill="#f73227"/>
    <circle id="Ellipse_6" data-name="Ellipse 6" cx="4.65" cy="4.65" r="4.65" transform="translate(186.33 110.419)" fill="#2c84fc"/>
    <g id="Group_12" data-name="Group 12" transform="translate(150.166 82.884)">
      <path id="Rectangle_10" data-name="Rectangle 10" d="M3,0H3A3,3,0,0,1,6,3V19a0,0,0,0,1,0,0H0a0,0,0,0,1,0,0V3A3,3,0,0,1,3,0Z" transform="translate(21.168 -0.162)" fill="#2c84fc"/>
      <path id="Rectangle_11" data-name="Rectangle 11" d="M2.5,0h0A2.5,2.5,0,0,1,5,2.5V27a0,0,0,0,1,0,0H0a0,0,0,0,1,0,0V2.5A2.5,2.5,0,0,1,2.5,0Z" transform="translate(0.168 18.838) rotate(-90)" fill="#2c84fc"/>
    </g>
    <g id="Group_15" data-name="Group 15" transform="translate(178.743 103.77)">
      <g id="Group_14" data-name="Group 14">
        <path id="Path_2" data-name="Path 2" d="M208.5,133.25h5.874v16.644a2.937,2.937,0,0,1-2.937,2.937h0a2.937,2.937,0,0,1-2.937-2.937Z" transform="translate(-208.5 -133.25)" fill="#fad719"/>
        <g id="Group_13" data-name="Group 13">
          <path id="Path_3" data-name="Path 3" d="M208.5,139.124V133.25h23.987a2.937,2.937,0,0,1,2.937,2.937h0a2.937,2.937,0,0,1-2.937,2.937Z" transform="translate(-208.5 -133.25)" fill="#fad719"/>
        </g>
      </g>
    </g>
    <g id="Group_18" data-name="Group 18" transform="translate(178.743 75.5)">
      <g id="Group_17" data-name="Group 17">
        <path id="Path_4" data-name="Path 4" d="M208.5,124.374V118.5h16.644a2.937,2.937,0,0,1,2.937,2.937h0a2.937,2.937,0,0,1-2.937,2.937Z" transform="translate(-208.5 -97.45)" fill="#f73227"/>
        <g id="Group_16" data-name="Group 16">
          <path id="Path_5" data-name="Path 5" d="M214.374,102.424H208.5V78.437a2.937,2.937,0,0,1,2.937-2.937h0a2.937,2.937,0,0,1,2.937,2.937Z" transform="translate(-208.5 -75.5)" fill="#f73227"/>
        </g>
      </g>
    </g>
    <g id="Group_20" data-name="Group 20" transform="translate(157.571 103.77)">
      <g id="Group_19" data-name="Group 19">
        <path id="Path_6" data-name="Path 6" d="M184.831,133.25v5.874H168.187a2.937,2.937,0,0,1-2.937-2.937h0a2.937,2.937,0,0,1,2.937-2.937Z" transform="translate(-165.25 -133.25)" fill="#27c241"/>
        <path id="Path_7" data-name="Path 7" d="M193.25,133.25h5.874v23.987a2.937,2.937,0,0,1-2.937,2.937h0a2.937,2.937,0,0,1-2.937-2.937Z" transform="translate(-179.543 -133.25)" fill="#27c241"/>
      </g>
    </g>
  </g>
</svg>
