<svg width="1920" height="310" xmlns="http://www.w3.org/2000/svg">

 <g>
  <title>background</title>
  <rect fill="none" id="canvas_background" height="602" width="802" y="-1" x="-1"/>
 </g>
 <g>
  <title>Layer 1</title>
  <path transform="rotate(-179.98573303222656 960.0025024414061,155.73965454101562) " id="svg_1" d="m0,283.054c22.75,12.98 53.1,15.2 70.635,14.808c92.115,-2.077 238.3,-79.9 354.895,-79.938c59.97,-0.019 106.17,18.059 141.58,34c47.778,21.511 47.778,21.511 90,38.938c28.418,11.731 85.344,26.169 152.992,17.971c68.127,-8.255 115.933,-34.963 166.492,-67.393c37.467,-24.032 148.6,-112.008 171.753,-127.963c27.951,-19.26 87.771,-81.155 180.71,-89.341c72.016,-6.343 105.479,12.388 157.434,35.467c69.73,30.976 168.93,92.28 256.514,89.405c100.992,-3.315 140.276,-41.7 177,-64.9l0,-83.868l-1920.005,0l0,282.814z"/>
 </g>
</svg>